<?xml version="1.0" encoding="UTF-8" standalone="no"?>
<svg
   xml:space="preserve"
   id="svg1"
   version="1.1"
   viewBox="1.7796610169491525 140.184 198.72881355932202 65.34"
   style="max-height: 500px"
   width="198.72881355932202"
   height="65.34"
   sodipodi:docname="2de Oost.svg"
   inkscape:version="1.4.2 (f4327f4, 2025-05-13)"
   xmlns:inkscape="http://www.inkscape.org/namespaces/inkscape"
   xmlns:sodipodi="http://sodipodi.sourceforge.net/DTD/sodipodi-0.dtd"
   xmlns="http://www.w3.org/2000/svg"
   xmlns:svg="http://www.w3.org/2000/svg"><sodipodi:namedview
     id="namedview1"
     pagecolor="#505050"
     bordercolor="#eeeeee"
     borderopacity="1"
     inkscape:showpageshadow="0"
     inkscape:pageopacity="0"
     inkscape:pagecheckerboard="0"
     inkscape:deskcolor="#505050"
     inkscape:zoom="48.629081"
     inkscape:cx="20.913412"
     inkscape:cy="30.033469"
     inkscape:window-width="2560"
     inkscape:window-height="1369"
     inkscape:window-x="-8"
     inkscape:window-y="-8"
     inkscape:window-maximized="1"
     inkscape:current-layer="svg1" /><defs
     id="defs1"><clipPath
       id="clipPath26"
       clipPathUnits="userSpaceOnUse"><path
         d="m -3.7041667,138.27476 v 30.06742 c 0.084322,0.008 0.1686976,0.0148 0.2532145,0.0196 0.012912,-5.3e-4 0.025985,7.9e-4 0.038757,0.003 1.4673872,0.086 2.93224036,0.2136 4.39559751,0.34985 1.32642969,0.11764 2.65592509,0.19758 3.98631999,0.25218 0.4874162,0.0135 0.9744223,0.0418 1.4567588,0.11627 0.2934303,0.0453 0.5795491,0.0936 0.852661,0.21807 0.1351727,0.0616 0.256014,0.15085 0.3839559,0.22634 0.1054196,0.0931 0.2196878,0.17736 0.3162599,0.27957 0.3242101,0.34317 0.6100215,0.87681 0.3818888,1.35134 -0.058517,0.12172 -0.1647674,0.21431 -0.2470134,0.32143 -0.1238346,0.0814 -0.2391167,0.17742 -0.3715536,0.24391 -0.3266586,0.16397 -0.7048384,0.24953 -1.0598835,0.31523 -0.6444224,0.11924 -1.2948092,0.14503 -1.9476847,0.17363 -1.1282146,0.0104 -2.2560516,-0.0373 -3.3832562,-0.0801 -0.82281726,-0.0486 -1.65442136,-0.12896 -2.4520467,-0.3483 -0.1312914,-0.0361 -0.2593417,-0.0828 -0.3891236,-0.12403 -0.4541977,-0.17153 -0.8563802,-0.44562 -1.2107788,-0.77463 -0.167002,-0.15503 -0.23613,-0.2409 -0.3844726,-0.40824 -0.1793335,-0.21985 -0.3531404,-0.44902 -0.4547526,-0.71675 -0.060109,-0.15837 -0.075087,-0.24928 -0.1126548,-0.41342 -0.031516,-0.18901 -0.033882,-0.37978 -0.031523,-0.5705 -0.00689,-2.7e-4 -0.013777,-8e-4 -0.020672,-0.001 v 45.93366 H 214.3125 v -76.43461 z m 0.4878256,30.52941 c -0.00193,0.14718 2.489e-4,0.29399 0.020672,0.44028 0.027057,0.12225 0.04214,0.21085 0.084232,0.32814 0.080421,0.22407 0.230464,0.41158 0.3772379,0.59532 0.128529,0.14588 0.196717,0.23022 0.3405479,0.36483 0.3067418,0.28709 0.6528261,0.53046 1.0464478,0.68265 0.1184039,0.038 0.2356741,0.0805 0.35553378,0.11369 0.76791417,0.2125 1.56873472,0.28911 2.36109622,0.33641 1.1145062,0.0424 2.2300307,0.0891 3.3455323,0.0801 0.6257547,-0.0272 1.2479187,-0.0516 1.8660359,-0.16227 0.3257592,-0.0583 0.6133986,-0.12185 0.9146728,-0.25579 0.092446,-0.0411 0.1752862,-0.10102 0.2630331,-0.15142 0.1079895,-0.10304 0.2011461,-0.15215 0.2211753,-0.31212 0.032386,-0.25866 -0.1519743,-0.53014 -0.313676,-0.709 -0.074848,-0.0828 -0.1639498,-0.15116 -0.2459799,-0.22686 -0.096963,-0.0611 -0.187406,-0.13435 -0.2909382,-0.18345 -0.2444393,-0.11597 -0.4976607,-0.15611 -0.7622276,-0.19741 -0.4688369,-0.0732 -0.9425982,-0.0994 -1.4164508,-0.11265 -1.3384626,-0.055 -2.6761408,-0.13531 -4.01060939,-0.25373 -1.38482089,-0.12893 -2.76818631,-0.28768 -4.15633511,-0.37672 z"
         style="fill:#ff0000;fill-opacity:1;fill-rule:nonzero;stroke:none;stroke-width:0.264583"
         id="path26" /></clipPath><clipPath
       clipPathUnits="userSpaceOnUse"
       id="clipPath19"><path
         id="path23"
         style="fill:#ff0000;fill-opacity:1;fill-rule:nonzero;stroke:none;stroke-width:0.264583"
         d="m 5.0355204,146.57853 v 17.61328 c 0.124455,-0.0138 0.2499849,-0.009 0.375,-0.004 0.051252,0.002 0.1030389,0.004 0.1542969,0.006 0.022421,-0.006 0.043785,-0.0119 0.066406,-0.0176 0.030246,-0.005 0.061694,-0.008 0.091797,-0.01 0.050175,-8e-4 0.098016,0.01 0.1367187,0.043 0.034745,0.003 0.068747,0.005 0.1035157,0.008 0.1272665,0.01 0.2109739,0.0577 0.2519531,0.11719 0.081462,-6.5e-4 0.1629785,-0.003 0.2441406,-0.006 0.1057233,-0.004 0.2107189,-0.009 0.3164063,-0.0137 0.3457323,-0.0153 0.3456113,0.33171 0,0.34961 -0.00946,5e-4 -0.019831,9.5e-4 -0.029297,0.002 0.00808,0.0169 0.017834,0.0331 0.023437,0.0508 0.033506,0.10598 0.016992,0.25345 0.013672,0.36328 -0.014512,0.30069 0.013469,0.60103 0.037109,0.90039 0.038039,0.47847 0.054912,0.95783 0.068359,1.4375 0.00973,0.37536 0.014028,0.7515 0.017578,1.12696 0.00185,0.19925 0.0034,0.39838 0.00391,0.59765 2.18e-5,0.0111 -1.7e-5,0.0221 0,0.0332 0.1250647,0.0315 0.2486501,0.072 0.3691406,0.12695 0.1351727,0.0616 0.2548711,0.15106 0.3828125,0.22656 0.1054198,0.0931 0.2198342,0.17709 0.3164063,0.2793 0.3242101,0.34317 0.6109455,0.87703 0.3828125,1.35156 -0.058517,0.12171 -0.1658009,0.2132 -0.2480469,0.32031 -0.1238348,0.0814 -0.2386569,0.17766 -0.3710938,0.24415 -0.3266586,0.16397 -0.7055011,0.2507 -1.0605468,0.3164 -0.1485739,0.0275 -0.2962905,0.0497 -0.4453125,0.0684 h 0.46875 c 0.346072,0 0.3460716,0.34961 0,0.34961 H 6.0120829 c -0.2094997,-0.001 -0.4194881,0.007 -0.6289063,0.0117 -0.1158306,0.002 -0.2317617,0.003 -0.3476562,0.004 v 26.30859 H 196.97693 v -52.20313 z m 0.2949219,18.22656 c -0.00275,7.9e-4 -0.00702,0.003 -0.00977,0.004 0.00124,0.005 0.0028,0.0103 0.00391,0.0156 0.00148,-0.006 0.00421,-0.0135 0.00586,-0.0195 z m 1.2226562,0.0801 v 0.002 h 0.00195 0.00195 0.00195 v -0.002 h -0.00195 -0.00195 z m -0.1953125,0.0156 c -0.00671,0.0275 -0.013517,0.0562 -0.017578,0.084 -0.00406,0.0278 -0.00527,0.0552 -0.00391,0.084 0.00109,0.0864 0.00319,0.17349 0.00781,0.25976 0.029579,-0.006 0.058016,-0.01 0.085937,-0.01 -0.00127,-0.0818 -3.92e-5,-0.16413 0.00391,-0.2461 0.00172,-0.0571 0.00524,-0.11459 0.00586,-0.17187 -0.02721,0.002 -0.054867,4e-4 -0.082031,0 z m 0.00586,0.70898 c 0.00434,0.0446 0.010137,0.0903 0.015625,0.13477 0.031212,0.26144 0.063194,0.52228 0.080078,0.78515 0.01233,0.20694 0.018731,0.41364 0.017578,0.6211 0.026497,0.0485 0.02931,0.1084 -0.00391,0.18164 -0.00281,0.10376 -0.0067,0.20698 -0.013672,0.31054 -0.024789,0.47808 -0.054807,0.95606 -0.087891,1.4336 0.018387,0.003 0.036303,0.005 0.054687,0.008 0.044947,0.007 0.090183,0.0141 0.1347656,0.0215 -5.944e-4,-0.18548 -0.00219,-0.37116 -0.00391,-0.55664 -0.00353,-0.3733 -0.00792,-0.74595 -0.017578,-1.11914 -0.013269,-0.47377 -0.028859,-0.94735 -0.066406,-1.41992 -0.010531,-0.13338 -0.022809,-0.26692 -0.03125,-0.40039 -0.025102,0.001 -0.051756,7.4e-4 -0.078125,0 z m -0.021485,3.94336 c -0.01041,0.20184 -0.018097,0.40324 -0.013672,0.60547 0.050626,0.005 0.096346,0.0249 0.1191407,0.0762 0.069411,0.15599 0.01192,0.22156 -0.085937,0.28906 h -0.00195 l -0.00195,0.002 h -0.00195 l -0.00195,0.002 v 0.002 h -0.00195 -0.00195 l -0.00195,0.002 -0.00195,0.002 v 0.002 c -0.00128,0.003 -0.00521,0.009 -0.00781,0.0137 -0.007,0.0114 -0.012992,0.0202 -0.019531,0.0274 0.063074,0.002 0.1303948,0.006 0.171875,0.0117 0.016279,0.002 0.041434,-0.001 0.056641,0.004 h 0.00195 0.00195 l 0.00195,0.002 h 0.00195 l 0.00195,0.002 v 0.002 l 0.00195,0.002 v 0.002 0.002 l 0.00195,0.002 c 0.00552,0.0932 4.711e-4,0.18923 -0.025391,0.2793 h 0.00195 l 0.00195,0.002 c 0.00838,0.002 0.017359,0.007 0.023437,0.01 l 0.00195,0.002 h 0.00195 l 0.00195,0.002 c 0.00115,0.002 0.00337,0.007 0.00391,0.008 l 0.00195,0.002 c 3.452e-4,0.001 0.00171,0.005 0.00195,0.006 h 0.00195 0.00195 0.00195 l 0.00195,0.002 h 0.00195 0.00195 0.00195 c -0.00219,-0.042 -0.00363,-0.0833 -0.00391,-0.125 -0.00867,-0.18011 -0.020497,-0.36067 -0.023437,-0.54101 -0.00324,-0.15995 -0.00142,-0.31854 -0.00195,-0.47852 -2.17e-5,-0.0618 -3.85e-5,-0.1236 0,-0.18554 -0.063933,-0.0112 -0.1280833,-0.0214 -0.1933594,-0.0312 -0.00866,-10e-4 -0.016734,-0.003 -0.025391,-0.004 z m 0.5683594,0.10742 c -1.12e-5,0.0335 -1.18e-5,0.068 0,0.10156 6.8e-4,0.1576 -0.00138,0.31703 0.00195,0.47461 0.00291,0.17713 0.012964,0.35239 0.021484,0.5293 0.0017,0.10085 0.015415,0.20384 0.00586,0.30469 -0.00641,0.0677 -0.01261,0.0792 -0.029297,0.14258 -0.033353,0.0829 -0.068797,0.14126 -0.1210938,0.18945 0.00647,0.0572 -0.018976,0.1165 -0.078125,0.1582 0.2738025,-0.0527 0.5244332,-0.11652 0.7851563,-0.23242 0.092446,-0.0411 0.1739715,-0.1 0.2617187,-0.15039 0.1079889,-0.10303 0.2026271,-0.15253 0.2226563,-0.3125 0.032401,-0.25867 -0.1527484,-0.53011 -0.3144501,-0.70898 -0.074848,-0.0828 -0.164064,-0.15087 -0.2460938,-0.22657 -0.096963,-0.0611 -0.1874841,-0.13447 -0.2910156,-0.18359 -0.072168,-0.0342 -0.1449853,-0.0629 -0.21875,-0.0859 z m -1.875,1.33203 v 0.0195 h 0.00195 c -8.467e-4,-0.007 -0.00111,-0.0124 -0.00195,-0.0195 z m 1.5527344,0.0723 c -0.00266,0.008 -0.00497,0.0158 -0.00781,0.0234 -7.091e-4,0.006 -0.00115,0.0116 -0.00195,0.0176 0.00431,-0.0135 0.0076,-0.0269 0.00977,-0.041 z" /></clipPath></defs><g
     id="layer1"
     style="stroke-width:2;stroke-dasharray:none"><path
       clip-path="url(#clipPath19)"
       id="path20"
       d="m 58.827692,147.44341 137.880708,-0.59897 0.004,51.67417 -191.413086,-0.0134 0.019131,-51.63281 32.228272,0.0975 0.03508,8.43069 -2.934953,0.035 -0.05262,11.68135 -12.718433,-0.22605 -0.01754,-3.543 -16.82044,-0.0117"
       style="fill:#000000;fill-opacity:0;stroke:#6699cc;stroke-width:2;stroke-dasharray:none;stroke-opacity:1" /><path
       id="path21"
       d="m 82.786735,147.14524 -0.02788,13.25022"
       style="fill:#000000;fill-opacity:0;stroke:#6699cc;stroke-width:2;stroke-dasharray:none;stroke-opacity:1" /><path
       id="path22"
       d="M 83.067368,198.40753 V 169.28217"
       style="fill:#000000;fill-opacity:0;stroke:#6699cc;stroke-width:2;stroke-dasharray:none;stroke-opacity:1" /></g></svg>
