<?xml version="1.0" encoding="UTF-8" standalone="no"?>
<svg
   xml:space="preserve"
   id="svg1"
   version="1.1"
   viewBox="4.745762711864407 103.356 199.32203389830508 111.078"
   style="max-height: 500px"
   width="199.32203389830508"
   height="111.078"
   sodipodi:docname="gelijkvloers.svg"
   inkscape:version="1.4.2 (f4327f4, 2025-05-13)"
   xmlns:inkscape="http://www.inkscape.org/namespaces/inkscape"
   xmlns:sodipodi="http://sodipodi.sourceforge.net/DTD/sodipodi-0.dtd"
   xmlns="http://www.w3.org/2000/svg"
   xmlns:svg="http://www.w3.org/2000/svg"><sodipodi:namedview
     id="namedview1"
     pagecolor="#505050"
     bordercolor="#eeeeee"
     borderopacity="1"
     inkscape:showpageshadow="0"
     inkscape:pageopacity="0"
     inkscape:pagecheckerboard="0"
     inkscape:deskcolor="#505050"
     inkscape:zoom="5.2530653"
     inkscape:cx="103.36822"
     inkscape:cy="43.688777"
     inkscape:window-width="2560"
     inkscape:window-height="1369"
     inkscape:window-x="-8"
     inkscape:window-y="-8"
     inkscape:window-maximized="1"
     inkscape:current-layer="svg1" /><defs
     id="defs1" /><g
     id="layer1"
     style="stroke-width:2;stroke-dasharray:none"><path
       id="path2"
       d="m 13.999417,163.14163 -0.002,8.8995 4.119698,-0.0318 -0.02983,-8.8677"
       style="fill:none;stroke:#6699cc;stroke-width:2;stroke-dasharray:none;stroke-opacity:1" /><path
       id="path3"
       d="m 14.24994,163.41004 -3.24287,0.004 0.445372,-55.63382 137.938298,0.12725 0.12725,32.57584 24.03601,0.0373 -0.24038,-10.08997 26.45196,0.11134 0.0159,37.68172 -50.29531,-0.15906 -0.0954,-5.43991 -52.044982,0.38174 0.254497,16.92417 h 9.798205 l 0.12724,5.47172 -78.131098,25.57712 -8.652957,-19.8509 -0.130061,-27.72208 h -2.417738"
       style="fill:none;stroke:#6699cc;stroke-width:2;stroke-dasharray:none;stroke-opacity:1" /><path
       id="path4"
       d="m 97.218507,163.00642 h -9.67095"
       style="fill:none;stroke:#6699cc;stroke-width:2;stroke-dasharray:none;stroke-opacity:1" /><path
       id="path5"
       d="m 55.798068,163.08868 0.03727,5.8612 5.113129,-0.094"
       style="fill:none;stroke:#6699cc;stroke-width:2;stroke-dasharray:none;stroke-opacity:1" /><path
       id="path6"
       d="m 75.331618,168.47815 2.799487,0.008 0.01125,-5.47592 2.279241,-0.004"
       style="fill:none;stroke:#6699cc;stroke-width:2;stroke-dasharray:none;stroke-opacity:1" /><path
       id="path7"
       d="M 55.130783,141.8194 55.09897,107.90745"
       style="fill:none;stroke:#6699cc;stroke-width:2;stroke-dasharray:none;stroke-opacity:1" /><path
       id="path8"
       d="m 81.948585,107.61568 -0.02316,13.71273 -11.954189,0.0516 -0.0072,15.77232"
       style="fill:none;stroke:#6699cc;stroke-width:2;stroke-dasharray:none;stroke-opacity:1" /><path
       id="path9"
       d="m 96.804946,107.77622 2e-6,3.24486"
       style="fill:none;stroke:#6699cc;stroke-width:2;stroke-dasharray:none;stroke-opacity:1" /><path
       id="path10"
       d="m 96.800152,119.92866 0.0075,15.2797 11.766458,0.0599 0.001,-27.58357"
       style="fill:none;stroke:#6699cc;stroke-width:2;stroke-dasharray:none;stroke-opacity:1" /><path
       id="path11"
       d="m 108.41645,121.26864 -11.712565,-0.004"
       style="fill:none;stroke:#6699cc;stroke-width:2;stroke-dasharray:none;stroke-opacity:1" /><path
       id="path12"
       d="m 108.5437,135.26607 10.94344,6.6e-4 -0.24744,-14.65749 30.27829,0.1504"
       style="fill:none;stroke:#6699cc;stroke-width:2;stroke-dasharray:none;stroke-opacity:1" /></g></svg>
