<?xml version="1.0" encoding="UTF-8" standalone="no"?>
<svg
   xml:space="preserve"
   id="svg1"
   version="1.1"
   viewBox="1.7796610169491525 140.184 201.10169491525423 95.04"
   style="max-height: 500px"
   width="201.10169491525423"
   height="95.04"
   sodipodi:docname="terras.svg"
   inkscape:version="1.4.2 (f4327f4, 2025-05-13)"
   xmlns:inkscape="http://www.inkscape.org/namespaces/inkscape"
   xmlns:sodipodi="http://sodipodi.sourceforge.net/DTD/sodipodi-0.dtd"
   xmlns="http://www.w3.org/2000/svg"
   xmlns:svg="http://www.w3.org/2000/svg"><sodipodi:namedview
     id="namedview1"
     pagecolor="#505050"
     bordercolor="#eeeeee"
     borderopacity="1"
     inkscape:showpageshadow="0"
     inkscape:pageopacity="0"
     inkscape:pagecheckerboard="0"
     inkscape:deskcolor="#505050"
     inkscape:zoom="6.0069109"
     inkscape:cx="138.17418"
     inkscape:cy="88.148469"
     inkscape:window-width="2560"
     inkscape:window-height="1369"
     inkscape:window-x="-8"
     inkscape:window-y="-8"
     inkscape:window-maximized="1"
     inkscape:current-layer="layer1" /><defs
     id="defs1"><clipPath
       id="clipPath26"
       clipPathUnits="userSpaceOnUse"><path
         d="m -3.7041667,138.27476 v 30.06742 c 0.084322,0.008 0.1686976,0.0148 0.2532145,0.0196 0.012912,-5.3e-4 0.025985,7.9e-4 0.038757,0.003 1.4673872,0.086 2.93224036,0.2136 4.39559751,0.34985 1.32642969,0.11764 2.65592509,0.19758 3.98631999,0.25218 0.4874162,0.0135 0.9744223,0.0418 1.4567588,0.11627 0.2934303,0.0453 0.5795491,0.0936 0.852661,0.21807 0.1351727,0.0616 0.256014,0.15085 0.3839559,0.22634 0.1054196,0.0931 0.2196878,0.17736 0.3162599,0.27957 0.3242101,0.34317 0.6100215,0.87681 0.3818888,1.35134 -0.058517,0.12172 -0.1647674,0.21431 -0.2470134,0.32143 -0.1238346,0.0814 -0.2391167,0.17742 -0.3715536,0.24391 -0.3266586,0.16397 -0.7048384,0.24953 -1.0598835,0.31523 -0.6444224,0.11924 -1.2948092,0.14503 -1.9476847,0.17363 -1.1282146,0.0104 -2.2560516,-0.0373 -3.3832562,-0.0801 -0.82281726,-0.0486 -1.65442136,-0.12896 -2.4520467,-0.3483 -0.1312914,-0.0361 -0.2593417,-0.0828 -0.3891236,-0.12403 -0.4541977,-0.17153 -0.8563802,-0.44562 -1.2107788,-0.77463 -0.167002,-0.15503 -0.23613,-0.2409 -0.3844726,-0.40824 -0.1793335,-0.21985 -0.3531404,-0.44902 -0.4547526,-0.71675 -0.060109,-0.15837 -0.075087,-0.24928 -0.1126548,-0.41342 -0.031516,-0.18901 -0.033882,-0.37978 -0.031523,-0.5705 -0.00689,-2.7e-4 -0.013777,-8e-4 -0.020672,-0.001 v 45.93366 H 214.3125 v -76.43461 z m 0.4878256,30.52941 c -0.00193,0.14718 2.489e-4,0.29399 0.020672,0.44028 0.027057,0.12225 0.04214,0.21085 0.084232,0.32814 0.080421,0.22407 0.230464,0.41158 0.3772379,0.59532 0.128529,0.14588 0.196717,0.23022 0.3405479,0.36483 0.3067418,0.28709 0.6528261,0.53046 1.0464478,0.68265 0.1184039,0.038 0.2356741,0.0805 0.35553378,0.11369 0.76791417,0.2125 1.56873472,0.28911 2.36109622,0.33641 1.1145062,0.0424 2.2300307,0.0891 3.3455323,0.0801 0.6257547,-0.0272 1.2479187,-0.0516 1.8660359,-0.16227 0.3257592,-0.0583 0.6133986,-0.12185 0.9146728,-0.25579 0.092446,-0.0411 0.1752862,-0.10102 0.2630331,-0.15142 0.1079895,-0.10304 0.2011461,-0.15215 0.2211753,-0.31212 0.032386,-0.25866 -0.1519743,-0.53014 -0.313676,-0.709 -0.074848,-0.0828 -0.1639498,-0.15116 -0.2459799,-0.22686 -0.096963,-0.0611 -0.187406,-0.13435 -0.2909382,-0.18345 -0.2444393,-0.11597 -0.4976607,-0.15611 -0.7622276,-0.19741 -0.4688369,-0.0732 -0.9425982,-0.0994 -1.4164508,-0.11265 -1.3384626,-0.055 -2.6761408,-0.13531 -4.01060939,-0.25373 -1.38482089,-0.12893 -2.76818631,-0.28768 -4.15633511,-0.37672 z"
         style="fill:#ff0000;fill-opacity:1;fill-rule:nonzero;stroke:none;stroke-width:0.264583"
         id="path26" /></clipPath><clipPath
       id="clipPath58"
       clipPathUnits="userSpaceOnUse"><path
         d="m 5.0348348,146.57865 v 17.61288 c 0.124455,-0.0138 0.2506726,-0.008 0.3756877,-0.003 0.051252,0.002 0.102221,0.004 0.153479,0.006 0.022421,-0.006 0.045075,-0.0124 0.067696,-0.0181 0.030246,-0.005 0.061364,-0.009 0.091467,-0.0103 0.050175,-8e-4 0.097723,0.009 0.136426,0.0424 0.034745,0.003 0.069618,0.006 0.1043863,0.009 0.3427598,0.0256 0.363923,0.33116 0.1023192,0.3886 -0.02299,0.007 -0.050528,0.0115 -0.082165,0.0114 -0.08221,-7.9e-4 -0.1644208,-0.002 -0.2464967,0.002 -0.010544,0.019 -0.026967,0.0353 -0.046509,0.0496 0.02695,0.0516 0.038601,0.12525 0.02377,0.21962 -0.011446,0.0728 -0.019944,0.14583 -0.031522,0.21859 0.075312,-0.004 0.1506024,-0.005 0.2263428,-0.002 0.2313718,0.008 0.2313631,0.24209 0,0.23409 -0.093213,-0.003 -0.1860534,1.3e-4 -0.2785361,0.006 -0.00135,0.004 -0.00269,0.008 -0.00414,0.0124 -0.00939,0.0106 -0.017973,0.0207 -0.025839,0.03 0.194859,-0.008 0.3898206,-0.0181 0.5844603,-0.0289 0.1066919,-0.006 0.2269683,-0.0735 0.3198773,-0.0207 0.067434,0.0383 0.095557,0.1687 0.045475,0.22789 -0.060684,0.0717 -0.1853554,0.0313 -0.2780194,0.047 -0.2255636,0.0385 -0.4500242,0.0833 -0.6738606,0.13127 2.106e-4,0.0865 2.91e-4,0.17287 5.291e-4,0.2594 -0.00143,0.13679 0.00295,0.27327 0.010335,0.4098 0.1122195,0.0207 0.1653508,0.0734 0.1917197,0.33796 0.00225,0.0224 -0.011814,0.0386 -0.032557,0.0517 0.062173,0.0218 0.1301888,0.0463 0.3669028,0.13022 0.2041967,0.0931 0.5009152,0.18858 0.2883545,0.48162 -0.046112,0.0636 -0.1280432,0.0919 -0.196887,0.12971 -0.097348,0.0534 -0.3226126,0.13905 -0.4268475,0.18035 -0.021251,0.01 -0.062286,0.0247 -0.1059368,0.0444 0.00235,0.0853 0.00442,0.17052 0.0062,0.2558 1.551e-4,0.008 3.704e-4,0.0169 5.292e-4,0.0253 0.111461,0.1091 0.01914,0.0239 0.2444295,0.22273 0.1539893,0.12931 0.2331384,0.16115 0.3038575,0.36173 0.047743,0.13542 0.041229,0.28193 0.012401,0.42582 0.054859,0.007 0.1095899,0.0153 0.1643309,0.0238 0.2934306,0.0453 0.5795494,0.0936 0.8526613,0.21807 0.1351727,0.0616 0.2560143,0.15085 0.3839557,0.22635 0.1054198,0.0931 0.2196878,0.17736 0.3162599,0.27957 0.3242101,0.34317 0.6100217,0.87681 0.3818887,1.35134 -0.058517,0.12171 -0.1647671,0.2143 -0.2470131,0.32142 -0.1238348,0.0814 -0.2391167,0.17743 -0.3715536,0.24392 -0.3266586,0.16397 -0.7048381,0.24952 -1.0598838,0.31522 -0.210502,0.0389 -0.4214191,0.0681 -0.6330363,0.0904 -0.00743,0.0787 -0.029549,0.15196 -0.084232,0.21239 -0.01397,0.0155 -0.031607,0.0269 -0.047542,0.0403 -0.070539,0.0471 -0.1519468,0.0613 -0.2346108,0.0693 -0.096162,0.007 -0.1923137,-0.002 -0.2878378,-0.0129 -0.090215,-0.009 -0.179659,-0.0236 -0.2697509,-0.0341 -0.030208,-0.003 -0.060553,-0.005 -0.090951,-0.007 v 26.38547 H 196.97712 v -52.20456 z m 0.2950724,18.22679 c -0.00275,7.9e-4 -0.00552,0.002 -0.00827,0.003 0.00124,0.005 0.00251,0.0102 0.00362,0.0155 0.00148,-0.006 0.003,-0.0121 0.00465,-0.0181 z m 0.3255615,2.20555 c 0.01461,0.16922 0.024146,0.3389 0.031006,0.5085 0.00952,-0.004 0.018875,-0.008 0.027905,-0.0119 0.1804527,-0.0712 0.2189991,-0.0831 0.3932576,-0.16329 0.041631,-0.0192 0.078027,-0.055 0.1235067,-0.061 0.025559,-0.003 0.045934,0.051 0.067696,0.0372 0.063993,-0.0405 -0.2709947,-0.22352 -0.304891,-0.22221 h -5.292e-4 -5.291e-4 -5.292e-4 v 5.3e-4 h -5.292e-4 v 5.3e-4 l -5.291e-4,5.3e-4 5.291e-4,5.3e-4 5.292e-4,5.3e-4 c 0.00423,0.007 0.024162,0.0245 0.065629,0.0527 -0.2809478,-0.0997 -0.3241479,-0.11539 -0.4025596,-0.14263 z m 0.05116,1.36478 c 0.0029,0.20965 0.00507,0.41924 0.00672,0.6289 0.1055873,0.008 0.2109607,0.0178 0.3162596,0.0289 0.010033,-0.0478 0.017198,-0.0963 0.020153,-0.14521 0.00287,-0.0475 0.0061,-0.0965 -0.00568,-0.14263 -0.04199,-0.16432 -0.1198761,-0.1851 -0.2532145,-0.29714 -0.02467,-0.0219 -0.053369,-0.0465 -0.084233,-0.0729 z m 0.0093,1.09864 c 5.556e-4,0.13952 7.408e-4,0.27911 0.00103,0.41858 0.015703,0.0322 0.032279,0.064 0.049093,0.0956 0.026252,0.0494 0.013391,0.0272 0.037724,0.0677 0.1244069,0.20701 0.042259,0.36419 -0.085783,0.3762 1.6e-6,0.002 -1.6e-6,0.004 0,0.006 0.039174,0.005 0.078232,0.01 0.1173054,0.015 0.053862,0.007 0.1088829,0.011 0.1607137,0.0274 0.032492,0.0103 0.096747,0.0187 0.088367,0.0517 -0.023254,0.0917 -0.1071478,0.15565 -0.1607137,0.23357 -0.066658,0.0102 -0.1332606,0.0201 -0.199988,0.03 0.00206,0.0886 0.00445,0.17731 0.011369,0.26561 0.070174,0.006 0.1403413,0.0114 0.2103231,0.0191 0.077013,0.008 0.1719593,-0.0194 0.2299602,0.032 0.0087,0.008 0.016952,0.0157 0.024289,0.0248 l 5.292e-4,-5.3e-4 5.292e-4,-5.3e-4 c 2.508e-4,-2.3e-4 7.937e-4,-7.9e-4 0.00103,-10e-4 h 5.291e-4 5.292e-4 5.292e-4 5.291e-4 5.292e-4 5.292e-4 5.291e-4 5.292e-4 l 5.292e-4,5.3e-4 v 5.3e-4 5.3e-4 5.3e-4 l -5.292e-4,5.3e-4 c -5.821e-4,0.002 -9.79e-4,0.004 -0.00156,0.006 0.016613,0.0221 0.029717,0.0474 0.039274,0.0744 0.084633,7.9e-4 0.1692034,0.002 0.2537314,0.002 0.2986736,0.002 0.3693126,0.231 0.2139405,0.34054 0.2738025,-0.0527 0.523725,-0.11612 0.7844481,-0.23202 0.092446,-0.0411 0.1752859,-0.101 0.2630331,-0.15141 0.1079889,-0.10303 0.2011458,-0.15216 0.221175,-0.31213 0.032386,-0.25867 -0.1519743,-0.53013 -0.313676,-0.709 -0.074848,-0.0828 -0.1639498,-0.15116 -0.2459796,-0.22686 -0.096963,-0.0611 -0.1874068,-0.13433 -0.2909383,-0.18345 -0.2444398,-0.11595 -0.4976606,-0.15612 -0.7622275,-0.19741 -0.08229,-0.0128 -0.1644597,-0.0245 -0.2470134,-0.0346 -0.026543,0.0654 -0.018505,0.0445 -0.076481,0.17777 -0.092331,0.21232 -0.3063645,0.11848 -0.2139405,-0.0935 0.028466,-0.0654 0.040106,-0.0916 0.048059,-0.11007 -0.053843,-0.005 -0.1078222,-0.0102 -0.1617472,-0.0139 z m 0.2185913,1.2299 c 0.00161,0.003 0.00349,0.007 0.00517,0.01 v 10e-4 l 5.292e-4,5.3e-4 h 5.292e-4 5.291e-4 5.292e-4 5.292e-4 c 0.00279,-5e-5 0.00929,-5.3e-4 0.01292,-0.003 h 5.291e-4 l 5.292e-4,-5.3e-4 5.292e-4,-5.3e-4 5.291e-4,-5.3e-4 5.292e-4,-0.001 v -5.3e-4 h -5.292e-4 l -5.291e-4,-5.3e-4 c -0.00726,-0.002 -0.014772,-0.003 -0.02222,-0.005 z m -0.8996868,0.28732 v 0.0212 c 6.879e-4,4e-5 0.00138,-4e-5 0.00206,0 -8.467e-4,-0.007 -0.00122,-0.0141 -0.00206,-0.0212 z"
         style="fill:#ff0000;fill-opacity:1;fill-rule:nonzero;stroke:none;stroke-width:0.264583"
         id="path59" /></clipPath><clipPath
       id="clipPath84"
       clipPathUnits="userSpaceOnUse"><path
         d="M 2.3161377,134.63054 V 237.75138 H 205.75643 V 134.63054 Z M 178.89864,228.92918 c 0.11176,-5.3e-4 0.2231,0.008 0.33435,0.0176 0.11135,0.0119 0.22307,0.0214 0.33486,0.0274 0.12368,0.006 0.24774,0.007 0.37155,0.008 0.1657,0.002 0.33142,0.002 0.49713,0.002 0.20719,2.2e-4 0.41396,-2e-5 0.62115,0 0.21106,4e-5 0.4225,0 0.63356,0 0.2219,2e-5 0.4437,0 0.66559,0 h 0.7214 0.57723 0.50591 c 0.24428,2.7e-4 0.4885,-0.001 0.73277,0.001 0.22326,5.3e-4 0.44598,0.0112 0.66869,0.0264 0.21702,0.0211 0.43439,0.0369 0.65216,0.0475 0.21361,0.009 0.42715,0.021 0.64079,0.0289 0.20144,0.007 0.40307,0.008 0.60461,0.0103 0.21271,0.001 0.42549,0.002 0.63821,0.002 0.22047,2.6e-4 0.44098,-0.001 0.66145,0.001 0.18517,0.003 0.37033,0.006 0.55553,0.008 0.17507,0.002 0.35001,0.003 0.52503,-0.002 0.13199,-0.007 0.26294,-0.0261 0.39274,-0.0506 0.0785,-0.0141 0.15661,-0.0295 0.23461,-0.046 0.56625,-0.11974 0.68725,0.45267 0.12092,0.57206 -0.0824,0.0173 -0.16514,0.0337 -0.24804,0.0486 -0.15966,0.0297 -0.32079,0.0525 -0.48318,0.0605 -0.007,2.3e-4 -0.0142,2.6e-4 -0.0212,5.3e-4 -0.003,0.0267 -0.008,0.0534 -0.0145,0.0791 -0.0111,0.0442 -0.0374,0.0839 -0.0625,0.12196 -0.0605,0.0915 -0.16124,0.1522 -0.25114,0.2098 -0.14809,0.0871 -0.30845,0.15354 -0.47337,0.20154 -0.0401,0.0117 -0.0805,0.0214 -0.12092,0.032 -0.25277,0.0656 -0.51297,0.0959 -0.77255,0.11834 -0.21227,0.0159 -0.42492,0.0228 -0.6377,0.0274 -0.016,0.0636 -0.0388,0.1272 -0.0496,0.19069 -0.0489,0.0321 -0.0951,0.0688 -0.14676,0.0961 -0.0502,0.0265 -0.17138,0.0583 -0.22738,0.0724 -0.0963,0.0239 -0.19365,0.0409 -0.29145,0.0568 -0.1633,0.026 -0.32849,0.034 -0.49351,0.0388 -0.004,0.13695 -0.13449,0.27808 -0.40308,0.30541 -0.0488,0.005 -0.0227,0.002 -0.077,0.007 -0.12247,0.008 -0.2449,0.0173 -0.36741,0.0243 -0.1733,0.0123 -0.34598,0.0295 -0.51832,0.0517 -0.17915,0.0187 -0.35915,0.0351 -0.53949,0.0341 -0.21892,-0.005 -0.43729,-0.0181 -0.65527,-0.0388 -0.14987,-0.0153 -0.29985,-0.0306 -0.44855,-0.0553 -0.0834,-0.0139 -0.19015,-0.0366 -0.27285,-0.0548 -0.045,-0.01 -0.0895,-0.0203 -0.13436,-0.0305 -0.25096,-0.0608 -0.50052,-0.12865 -0.75293,-0.18345 -0.16619,-0.0353 -0.3321,-0.0721 -0.50022,-0.0972 -0.19322,-0.0288 -0.30899,-0.11362 -0.35553,-0.2098 -0.10891,-0.004 -0.21767,-0.008 -0.3266,-0.0114 -0.12212,-0.003 -0.24422,-0.006 -0.36639,-0.008 -0.47591,-0.009 -0.55292,-0.40585 -0.24339,-0.54054 -0.0118,-7.9e-4 -0.0238,-0.001 -0.0357,-0.002 -0.0762,-0.003 -0.12417,-8e-4 -0.19947,0.003 l -0.0765,0.006 c -0.016,0.002 -0.0321,0.006 -0.0481,0.005 h -0.001 v -5.3e-4 c -0.017,0.006 -0.043,0.0264 -0.0553,0.0222 l -5.3e-4,-5.2e-4 h -5.3e-4 l -5.3e-4,-5.3e-4 h -5.3e-4 -5.3e-4 l -5.3e-4,-5.3e-4 -5.3e-4,-5.3e-4 c -7.9e-4,-10e-4 -0.002,-0.003 -0.003,-0.005 -0.0398,-0.10916 -0.0652,-0.22236 -0.0889,-0.33642 -0.0867,-0.009 -0.17358,-0.018 -0.26097,-0.0181 -0.086,0 -0.17186,-3e-5 -0.25786,0 -0.0605,3e-5 -0.12079,2.2e-4 -0.18139,5.3e-4 -0.063,0 -0.12613,1e-4 -0.18913,0.001 -0.0691,0.002 -0.13823,0.004 -0.20723,0.007 -0.094,0.005 -0.18752,0.0119 -0.28163,0.0129 -0.16784,0.004 -0.33596,0.004 -0.50385,0.005 -0.16291,0.001 -0.32599,0.003 -0.48886,0.007 l 5.3e-4,-0.001 c -0.57858,0.0139 -0.61068,-0.56764 -0.032,-0.58394 0.17182,-0.005 0.34335,-0.006 0.51522,-0.008 0.0941,-0.001 0.1881,-0.001 0.28215,-0.002 -0.004,-0.14314 0.13181,-0.29051 0.41548,-0.30489 0.0886,-0.004 0.17743,-0.006 0.26613,-0.008 z m 0.87488,0.66249 c -0.002,0.002 -0.004,0.003 -0.005,0.004 2.6e-4,-7e-5 5.3e-4,1.3e-4 0.001,0 0.002,-7.9e-4 0.004,-0.002 0.005,-0.003 v -5.3e-4 z m -0.008,0.005 c -2.7e-4,2.6e-4 -8e-4,2.6e-4 -0.001,5.2e-4 2.6e-4,-1.2e-4 7.9e-4,9e-5 0.001,0 z m -0.001,5.2e-4 c -2.7e-4,1.3e-4 -8e-4,5.3e-4 -0.001,5.3e-4 v 5.3e-4 h 5.3e-4 c 2e-4,-2e-4 2.5e-4,-7.9e-4 5.3e-4,-0.001 z m 9.65574,0.30438 v 5.3e-4 h 5.3e-4 v -5.3e-4 z m 0.002,5.3e-4 c 0.007,0.002 0.0144,0.003 0.0243,0.004 h 5.3e-4 v -5.3e-4 l -5.3e-4,-5.3e-4 v -5.3e-4 l -5.3e-4,-5.3e-4 -5.3e-4,-5.3e-4 h -5.2e-4 v -5.2e-4 h -5.3e-4 c -0.008,-5.3e-4 -0.0147,-5.3e-4 -0.0222,-5.3e-4 z"
         style="fill:#ff0000;fill-opacity:1;fill-rule:nonzero;stroke:none;stroke-width:0.264583"
         id="path85" /></clipPath><clipPath
       id="clipPath87"
       clipPathUnits="userSpaceOnUse"><path
         d="m 175.4849,213.51875 v 17.52865 h 6.85642 c -0.0716,-0.0173 -0.14349,-0.034 -0.21549,-0.0496 -0.1662,-0.0353 -0.3321,-0.0721 -0.50022,-0.0972 -0.19322,-0.0288 -0.30898,-0.11362 -0.35554,-0.2098 -0.10889,-0.004 -0.21766,-0.008 -0.32659,-0.0109 -0.12213,-0.003 -0.24423,-0.006 -0.36639,-0.008 -0.47592,-0.009 -0.55292,-0.40586 -0.24339,-0.54054 -0.0118,-8e-4 -0.0238,-0.001 -0.0357,-0.002 -0.0762,-0.003 -0.12417,-7.9e-4 -0.19947,0.003 l -0.0765,0.006 c -0.016,0.002 -0.0321,0.006 -0.0481,0.005 h -5.3e-4 v -5.3e-4 c -0.017,0.006 -0.043,0.0264 -0.0553,0.0222 -6e-5,-3e-5 -0.001,-7.9e-4 -0.002,-0.001 h -5.2e-4 -5.3e-4 -5.3e-4 l -5.3e-4,-5.3e-4 -5.3e-4,-5.3e-4 c -8e-4,-0.001 -0.002,-0.003 -0.003,-0.005 -0.0398,-0.10918 -0.0652,-0.22236 -0.0889,-0.33642 -0.0867,-0.009 -0.17358,-0.018 -0.26097,-0.0181 -0.086,0 -0.17186,-3e-5 -0.25786,0 -0.0605,3e-5 -0.12079,2.5e-4 -0.18139,5.2e-4 -0.063,0 -0.12613,9e-5 -0.18913,0.001 -0.0691,0.002 -0.13823,0.004 -0.20723,0.007 -0.094,0.005 -0.18752,0.0119 -0.28163,0.0129 -0.16784,0.004 -0.33596,0.004 -0.50385,0.005 -0.16291,0.001 -0.32599,0.003 -0.48886,0.007 l 5.3e-4,-5.2e-4 c -0.57858,0.0139 -0.61067,-0.56764 -0.032,-0.58394 0.17182,-0.005 0.34335,-0.006 0.51522,-0.008 0.094,-10e-4 0.18815,-10e-4 0.28215,-0.002 -0.004,-0.1432 0.13168,-0.2905 0.41548,-0.30489 0.0886,-0.004 0.17743,-0.006 0.26613,-0.008 0.11176,-5.3e-4 0.2231,0.008 0.33435,0.0176 0.11135,0.0119 0.22307,0.0214 0.33486,0.0274 0.12368,0.006 0.24774,0.007 0.37155,0.008 0.1657,0.002 0.33142,0.002 0.49713,0.002 0.20719,2.2e-4 0.41396,-3e-5 0.62115,0 0.21106,4e-5 0.4225,0 0.63356,0 0.2219,1e-5 0.4437,0 0.66559,0 h 0.7214 0.57723 0.50591 c 0.24428,2.7e-4 0.4885,-0.001 0.73277,0.001 0.22326,5.3e-4 0.44598,0.0112 0.66869,0.0263 0.21702,0.0211 0.43439,0.0369 0.65216,0.0475 0.21361,0.009 0.42715,0.021 0.64079,0.0289 0.20144,0.007 0.40307,0.008 0.60461,0.0104 0.21271,10e-4 0.42549,0.002 0.63821,0.002 0.22047,2.7e-4 0.44098,-0.001 0.66145,0.001 0.18517,0.003 0.37033,0.006 0.55553,0.008 0.17507,0.002 0.35001,0.003 0.52503,-0.002 0.13199,-0.007 0.26294,-0.0261 0.39274,-0.0506 0.0785,-0.0141 0.15661,-0.0295 0.23461,-0.046 0.56625,-0.11974 0.68725,0.45267 0.12092,0.57206 -0.0824,0.0173 -0.16514,0.0337 -0.24804,0.0486 -0.15966,0.0297 -0.32079,0.0525 -0.48318,0.0605 -0.007,2.4e-4 -0.0145,2.6e-4 -0.0217,5.3e-4 -0.003,0.0267 -0.008,0.0534 -0.0145,0.0791 -0.0111,0.0442 -0.0374,0.0839 -0.0625,0.12196 -0.0605,0.0915 -0.16125,0.1522 -0.25115,0.2098 -0.14809,0.0871 -0.30843,0.15355 -0.47335,0.20154 -0.0401,0.0117 -0.0805,0.0214 -0.12094,0.032 -0.25275,0.0656 -0.51297,0.0959 -0.77255,0.11834 -0.21227,0.0159 -0.4249,0.0228 -0.6377,0.0274 -0.016,0.0636 -0.0388,0.1272 -0.0496,0.19069 -0.0489,0.0321 -0.0951,0.0688 -0.14675,0.0961 -0.0502,0.0265 -0.17137,0.0583 -0.22737,0.0724 -0.0963,0.0239 -0.19367,0.0409 -0.29146,0.0568 -0.1633,0.026 -0.3285,0.034 -0.49352,0.0388 -0.001,0.037 -0.0117,0.0742 -0.0315,0.10956 h 6.74997 v -17.52813 z m 4.28862,16.07292 c -0.002,0.002 -0.004,0.003 -0.005,0.004 2.6e-4,-7e-5 5.3e-4,1.3e-4 0.001,0 0.002,-7.9e-4 0.004,-0.002 0.005,-0.003 v -5.3e-4 z m -0.008,0.005 c -2.7e-4,2.6e-4 -8e-4,2.6e-4 -0.001,5.2e-4 2.6e-4,-1.2e-4 7.9e-4,9e-5 0.001,0 z m -0.001,5.2e-4 c -2.7e-4,1.3e-4 -8e-4,5.3e-4 -0.001,5.3e-4 v 5.3e-4 h 5.3e-4 c 2e-4,-2e-4 2.5e-4,-7.9e-4 5.3e-4,-0.001 z m 9.65574,0.30438 v 5.3e-4 h 5.3e-4 v -5.3e-4 z m 0.002,5.3e-4 c 0.007,0.002 0.0144,0.003 0.0243,0.004 h 5.3e-4 v -5.3e-4 l -5.3e-4,-5.3e-4 v -5.3e-4 l -5.3e-4,-5.3e-4 -5.3e-4,-5.3e-4 h -5.3e-4 v -5.2e-4 h -5.2e-4 c -0.008,-5.3e-4 -0.0147,-5.3e-4 -0.0222,-5.3e-4 z"
         style="fill:#ff0000;fill-opacity:1;fill-rule:nonzero;stroke:none;stroke-width:0.264583"
         id="path88" /></clipPath></defs><g
     id="layer1"
     style="stroke-width:2;stroke-dasharray:none"><path
       id="path60"
       d="m 55.574192,228.86894 -47.9012754,-0.004 -0.016536,-86.93216 137.2029894,-0.0273 -0.13229,14.52136 54.96719,0.22335 -0.0428,72.19568 -55.38344,0.0117"
       style="fill:#000000;fill-opacity:0;stroke:#6699cc;stroke-width:2;stroke-dasharray:none;stroke-opacity:1" /><path
       id="path61"
       d="m 130.57187,228.86458 -58.869788,-0.0227"
       style="fill:#000000;fill-opacity:0;stroke:#6699cc;stroke-width:2;stroke-dasharray:none;stroke-opacity:1" /><rect
       y="178.99062"
       x="91.28125"
       height="31.882292"
       width="58.869789"
       id="rect61"
       style="fill:#000000;fill-opacity:0;stroke:#6699cc;stroke-width:2;stroke-dasharray:none;stroke-opacity:1" /><path
       id="path62"
       d="M 7.8052082,154.91354 69.883072,154.8474"
       style="fill:#000000;fill-opacity:0;stroke:#6699cc;stroke-width:2;stroke-dasharray:none;stroke-opacity:1" /><circle
       r="12.005468"
       cy="169.16797"
       cx="57.712238"
       id="path63"
       style="fill:#6699cc;fill-opacity:1;stroke:#6699cc;stroke-width:2;stroke-dasharray:none;stroke-opacity:1" /><circle
       clip-path="url(#clipPath87)"
       cy="222.28308"
       cx="184.24922"
       id="path63-1"
       style="fill:#6699cc;fill-opacity:1;stroke:#6699cc;stroke-width:2;stroke-dasharray:none;stroke-opacity:1"
       r="7.5158949" /></g></svg>
